<?xml version="1.0" encoding="UTF-8"?>
<!DOCTYPE svg PUBLIC "-//W3C//DTD SVG 1.1//EN" "http://www.w3.org/Graphics/SVG/1.1/DTD/svg11.dtd">
<!-- Creator: CorelDRAW -->
<svg xmlns="http://www.w3.org/2000/svg" xml:space="preserve" width="2048px" height="2048px" style="shape-rendering:geometricPrecision; text-rendering:geometricPrecision; image-rendering:optimizeQuality; fill-rule:evenodd; clip-rule:evenodd"
viewBox="0 0 2048 2048"
 xmlns:xlink="http://www.w3.org/1999/xlink">
 <defs>
  <style type="text/css">
   <![CDATA[
    .fil1 {fill:none}
    .fil3 {fill:#424242}
    .fil2 {fill:#5D4037}
    .fil0 {fill:#FFD54F}
    .fil4 {fill:#212121;fill-rule:nonzero}
   ]]>
  </style>
 </defs>
 <g id="Layer_x0020_1">
  <metadata id="CorelCorpID_0Corel-Layer"/>
  <path class="fil0" d="M1024 255.999c424.155,0 768.001,343.845 768.001,768.001 0,424.155 -343.845,768.001 -768.001,768.001 -424.155,0 -768.001,-343.845 -768.001,-768.001 0,-424.155 343.845,-768.001 768.001,-768.001z"/>
  <rect class="fil1" width="2048" height="2048"/>
  <rect class="fil1" x="255.999" y="255.999" width="1536" height="1536"/>
  <rect class="fil1" width="2048" height="2048"/>
  <rect class="fil1" x="255.999" y="255.999" width="1536" height="1536"/>
  <rect class="fil1" width="2048" height="2048"/>
  <rect class="fil1" x="255.999" y="255.999" width="1536" height="1536"/>
  <path class="fil2" d="M671.999 1280c54.404,312.78 657.185,300.019 704.001,0 -114.196,155.313 -489.486,229.459 -704.001,0z"/>
  <g id="_399806592">
   <g>
    <path id="_399807096" class="fil3" d="M1044.76 709.558c157.204,-41.9244 320.228,-51.4914 494.235,0 110.946,414.336 -590.664,401.405 -494.235,0z"/>
    <path id="_399806928" class="fil4" d="M1041.96 694.818c79.3146,-21.0803 160.23,-34.0205 243.444,-35.2323 83.6268,-1.21654 169.352,9.44056 257.814,35.6174l-4.2189 14.3551 4.2567 -14.3835c5.50158,1.62756 9.36733,6.13229 10.4433,11.387 33.704,126.945 -5.41418,216.358 -75.3898,268.908 -48.6237,36.5138 -112.163,54.717 -176.236,54.9496 -63.8575,0.231496 -128.541,-17.4201 -179.71,-52.6075 -76.5438,-52.6359 -122.895,-143.648 -92.1308,-271.71l14.5311 3.45709 -14.5854 -3.50433c1.42087,-5.91615 6.1689,-10.1646 11.7815,-11.2358zm243.796 -5.3504c-77.7107,1.1315 -153.683,12.9413 -228.428,32.2666 -23.2595,109.179 16.761,186.587 82.0264,231.468 46.0441,31.663 104.63,47.5465 162.718,47.3351 57.8741,-0.210236 114.976,-16.4327 158.307,-48.9733 59.4,-44.6079 92.8808,-120.915 66.2126,-230.029 -82.6418,-23.5807 -162.727,-33.202 -240.836,-32.067z"/>
   </g>
   <g>
    <path id="_399806784" class="fil3" d="M1003.24 709.558c-157.204,-41.9244 -320.228,-51.4914 -494.235,0 -110.946,414.336 590.664,401.405 494.235,0z"/>
    <path id="_399806688" class="fil4" d="M1006.04 694.818c-79.3146,-21.0803 -160.23,-34.0205 -243.444,-35.2323 -83.6268,-1.21654 -169.352,9.44056 -257.814,35.6174l4.2189 14.3551 -4.2567 -14.3835c-5.50158,1.62756 -9.36733,6.13229 -10.4433,11.387 -33.704,126.945 5.41418,216.358 75.3898,268.908 48.6237,36.5138 112.163,54.717 176.236,54.9496 63.8575,0.231496 128.541,-17.4201 179.71,-52.6075 76.5438,-52.6359 122.895,-143.648 92.1308,-271.71l-14.5311 3.45709 14.5854 -3.50433c-1.42087,-5.91615 -6.1689,-10.1646 -11.7815,-11.2358zm-243.796 -5.3504c77.7107,1.1315 153.683,12.9413 228.428,32.2666 23.2595,109.179 -16.761,186.587 -82.0264,231.468 -46.0441,31.663 -104.63,47.5465 -162.718,47.3351 -57.8741,-0.210236 -114.976,-16.4327 -158.307,-48.9733 -59.4,-44.6079 -92.8808,-120.915 -66.2126,-230.029 82.6418,-23.5807 162.727,-33.202 240.836,-32.067z"/>
   </g>
  </g>
 </g>
</svg>
