<?xml version="1.0"?>
<svg xmlns="http://www.w3.org/2000/svg" xmlns:xlink="http://www.w3.org/1999/xlink" version="1.1" id="Capa_1" x="0px" y="0px" viewBox="0 0 512 512" style="enable-background:new 0 0 512 512;" xml:space="preserve" width="512px" height="512px"><g><g>
	<g>
		<path d="M501.333,138.667H10.667C4.779,138.667,0,143.445,0,149.333v213.333c0,5.888,4.779,10.667,10.667,10.667h490.667    c5.888,0,10.667-4.779,10.667-10.667V149.333C512,143.445,507.221,138.667,501.333,138.667z M192,298.667    c0,4.587-2.944,8.661-7.296,10.112c-1.109,0.384-2.24,0.555-3.371,0.555c-3.285,0-6.485-1.536-8.533-4.267L128,245.333v53.333    c0,5.888-4.779,10.667-10.667,10.667s-10.667-4.779-10.667-10.667v-85.333c0-4.587,2.944-8.661,7.296-10.112    c4.352-1.472,9.152,0.043,11.904,3.712l44.8,59.733v-53.333c0-5.888,4.779-10.667,10.667-10.667S192,207.445,192,213.333V298.667z     M266.667,245.333c5.888,0,10.667,4.779,10.667,10.667c0,5.888-4.779,10.667-10.667,10.667h-32V288h32    c5.888,0,10.667,4.779,10.667,10.667s-4.779,10.667-10.667,10.667H224c-5.888,0-10.667-4.779-10.667-10.667v-85.333    c0-5.888,4.779-10.667,10.667-10.667h42.667c5.888,0,10.667,4.779,10.667,10.667S272.555,224,266.667,224h-32v21.333H266.667z     M405.013,215.915l-21.333,85.333c-1.152,4.608-5.205,7.893-9.941,8.064c-0.128,0-0.277,0-0.405,0    c-4.565,0-8.661-2.923-10.112-7.296L352,268.395l-11.221,33.643c-1.493,4.501-5.696,7.808-10.517,7.275    c-4.736-0.171-8.789-3.477-9.941-8.064l-21.333-85.333c-1.429-5.717,2.048-11.499,7.765-12.928    c5.696-1.429,11.499,2.027,12.928,7.765l12.459,49.792l9.749-29.248c2.901-8.704,17.344-8.704,20.224,0l9.749,29.248    l12.459-49.792c1.408-5.739,7.211-9.216,12.928-7.765C402.965,204.416,406.443,210.219,405.013,215.915z" data-original="#000000" class="active-path" data-old_color="#000000" fill="#C12020"/>
	</g>
</g></g> </svg>
