<?xml version="1.0"?>
<svg xmlns="http://www.w3.org/2000/svg" xmlns:xlink="http://www.w3.org/1999/xlink" version="1.1" id="Capa_1" x="0px" y="0px" viewBox="0 0 512 512" style="enable-background:new 0 0 512 512;" xml:space="preserve" width="512px" height="512px" class=""><g><path style="fill:#FFFFFF" d="M68.243,107.842L68.243,107.842c45.723-45.789,119.853-45.789,165.576,0l6.761,6.771  c8.239,8.252,21.598,8.252,29.838,0l6.761-6.771c45.722-45.789,119.853-45.789,165.576,0l0,0  c41.211,41.272,47.605,105.937,15.276,154.501l0,0c-41.759,60.162-95.024,111.426-156.71,150.823l-34.478,22.02  c-6.919,4.419-15.77,4.419-22.689,0l-34.478-22.02C147.99,373.77,94.725,322.505,52.966,262.343l0,0  C20.638,213.779,27.032,149.114,68.243,107.842z" data-original="#FF4040" class="active-path" data-old_color="#FF4040"/><path style="fill:#ED3C3C;" d="M265.962,435.705c-6.778,3.881-15.177,3.715-21.807-0.519l-34.478-22.02  c-61.686-39.396-114.951-90.661-156.71-150.823l0,0c-32.329-48.564-25.935-113.229,15.276-154.501l0,0  C88.436,87.62,114.17,76.335,140.55,73.974c-12.716,6.087-24.637,14.397-35.171,24.945l0,0  c-44.898,44.963-51.864,115.413-16.643,168.322l0,0c45.494,65.544,103.524,121.394,170.728,164.314L265.962,435.705z" data-original="#ED3C3C" class=""/><path style="fill:#F8C087" d="M511.005,250.071v79.96h-38.252c-16.957,0-33.682,3.954-48.849,11.548  c-11.087,5.551-23.312,8.442-35.707,8.442h-35.505c-0.738,0,5.18-0.054,4.452-0.136h-19.315c-8.249,0-14.937-6.697-14.937-14.958  l0,0c0-8.261,6.688-14.958,14.937-14.958l-19.961-0.068c-8.249,0-14.937-6.697-14.937-14.958l0,0  c0-8.261,6.688-14.958,14.937-14.958l-29.941-0.068c-8.249,0-14.937-6.697-14.937-14.959l0,0c0-8.261,6.688-14.958,14.937-14.958  h19.961c-8.249,0-14.937-6.697-14.937-14.959s6.688-14.958,14.937-14.958h45.928h38.295h5.938c8.392,0,13.037-9.742,7.762-16.278  l-15.814-19.594c-7.343-9.099-6.647-22.28,1.614-30.552l0.171-0.172c1.914-1.917,4.904-2.007,6.882-0.254  c10.402,9.221,41.484,36.762,60.35,53.479c9.744,8.633,16.086,20.46,17.897,33.362l0,0h34.094V250.071z M225.075,259.998h-19.961  c8.249,0,14.937-6.697,14.937-14.959s-6.688-14.958-14.937-14.958h-45.928h-38.294h-5.938c-8.392,0-13.037-9.742-7.762-16.278  l15.813-19.594c7.343-9.099,6.647-22.28-1.613-30.552l-0.171-0.172c-1.914-1.917-4.904-2.007-6.881-0.254  c-10.402,9.221-41.484,36.762-60.351,53.479c-9.743,8.633-16.086,20.46-17.896,33.362l0,0H0v79.96h40.248  c16.957,0,33.682,3.954,48.849,11.548c11.087,5.551,23.312,8.442,35.707,8.442h35.505c0.738,0-5.181-0.054-4.452-0.136h19.315  c8.249,0,14.937-6.697,14.937-14.958l0,0c0-8.261-6.688-14.958-14.937-14.958l19.961-0.068c8.249,0,14.937-6.697,14.937-14.958l0,0  c0-8.261-6.688-14.958-14.937-14.958l29.941-0.068c8.249,0,14.937-6.697,14.937-14.959l0,0  C240.012,266.695,233.324,259.998,225.075,259.998z" data-original="#F8C087" class=""/><path style="fill:#F8AF78;" d="M164.345,319.869h31.401c-0.203,0.008-0.403,0.031-0.608,0.031H159.19v0.068h15.986  c8.227,0,14.898,6.663,14.933,14.894h-25.765h-39.423c-4.134,0-7.485-3.356-7.485-7.496s3.351-7.496,7.485-7.496h39.424V319.869z   M225.079,259.998h-19.961c0.565,0,1.12-0.038,1.668-0.099h-42.441h-39.423c-4.134,0-7.485,3.356-7.485,7.496  s3.351,7.496,7.485,7.496h39.423h43.749h31.918C239.977,266.661,233.306,259.998,225.079,259.998z M164.345,289.884h-39.423  c-4.134,0-7.485,3.356-7.485,7.496s3.351,7.496,7.485,7.496h39.423h43.749h1.977c-0.035-8.231-6.706-14.894-14.933-14.894H159.19  v-0.068h65.889c0.205,0,0.405-0.023,0.608-0.031h-17.593h-43.749V289.884z M386.084,319.869h-34.432h-34.395  c0.203,0.008,0.403,0.031,0.608,0.031h35.947v0.068h-15.986c-8.228,0-14.899,6.663-14.934,14.894h28.76h34.432  c4.134,0,7.485-3.356,7.485-7.496C393.569,323.226,390.218,319.869,386.084,319.869z M386.084,289.884h-34.432h-48.739h-15.597  c0.203,0.008,0.403,0.031,0.608,0.031h65.888v0.068h-35.947c-8.228,0-14.899,6.663-14.934,14.894h48.72h34.432  c4.134,0,7.485-3.356,7.485-7.496C393.569,293.241,390.218,289.884,386.084,289.884z M386.084,259.899h-34.432h-45.435  c0.548,0.061,1.104,0.099,1.668,0.099h-19.961c-8.228,0-14.899,6.663-14.934,14.894h29.922h48.739h34.432  c4.134,0,7.485-3.356,7.485-7.496S390.218,259.899,386.084,259.899z M7.485,225.583c-4.134,0-7.485,3.356-7.485,7.496v116.942  c0,4.14,3.351,7.496,7.485,7.496s7.485-3.356,7.485-7.496V233.079C14.971,228.939,11.62,225.583,7.485,225.583z M504.515,225.583  c-4.134,0-7.485,3.356-7.485,7.496v116.942c0,4.14,3.351,7.496,7.485,7.496c4.134,0,7.485-3.356,7.485-7.496V233.079  C512,228.939,508.649,225.583,504.515,225.583z" data-original="#F8AF78" class=""/></g> </svg>
