<?xml version="1.0" standalone="no"?>
<!DOCTYPE svg PUBLIC "-//W3C//DTD SVG 20010904//EN"
 "http://www.w3.org/TR/2001/REC-SVG-20010904/DTD/svg10.dtd">
<svg version="1.0" xmlns="http://www.w3.org/2000/svg"
 width="64.000000pt" height="64.000000pt" viewBox="0 0 64.000000 64.000000"
 preserveAspectRatio="xMidYMid meet">
<metadata>
Created by potrace 1.15, written by Peter Selinger 2001-2017
</metadata>
<g transform="translate(0.000000,64.000000) scale(0.100000,-0.100000)"
fill="#000000" stroke="none">
<path d="M258 494 c-36 -19 -48 -43 -48 -96 0 -31 7 -54 25 -78 32 -44 43 -50
85 -50 42 0 53 6 85 50 27 36 34 104 15 141 -24 45 -109 62 -162 33z m101 -29
c16 -8 34 -28 41 -45 28 -67 -44 -138 -111 -110 -44 19 -66 68 -49 110 12 29
50 59 78 60 7 0 26 -7 41 -15z"/>
</g>
</svg>
